<svg width="26" height="26" viewBox="0 0 26 26" fill="none" xmlns="http://www.w3.org/2000/svg">
<circle cx="13" cy="13" r="13" fill="white"/>
<g clip-path="url(#clip0_329_9)">
<path d="M6.33333 6.33329V19.6666C6.33333 20.1087 6.50893 20.5326 6.82149 20.8451C7.13405 21.1577 7.55797 21.3333 8 21.3333H18C18.442 21.3333 18.866 21.1577 19.1785 20.8451C19.4911 20.5326 19.6667 20.1087 19.6667 19.6666V9.95163C19.6666 9.72959 19.6222 9.5098 19.5361 9.30516C19.45 9.10052 19.3238 8.91516 19.165 8.75996L15.465 5.14163C15.1536 4.83717 14.7355 4.66668 14.3 4.66663H8C7.55797 4.66663 7.13405 4.84222 6.82149 5.15478C6.50893 5.46734 6.33333 5.89127 6.33333 6.33329Z" stroke="#3498DB" stroke-width="2" stroke-linecap="round" stroke-linejoin="round"/>
<path d="M14.6667 4.66663V7.99996C14.6667 8.44199 14.8423 8.86591 15.1548 9.17847C15.4674 9.49103 15.8913 9.66663 16.3333 9.66663H19.6667" stroke="#3498DB" stroke-width="2" stroke-linejoin="round"/>
<path d="M8 15.7105L15.9667 7.73546L19.0917 10.8605L11.125 18.8355H8V15.7105Z" fill="#3498DB"/>
<path d="M22.7583 7.20212L19.5583 10.3938L16.4333 7.26879L19.6333 4.07712C19.9583 3.75212 20.5 3.75212 20.8083 4.07712L22.7583 6.02712C23.0833 6.33546 23.0833 6.87712 22.7583 7.20212Z" fill="#3498DB"/>
</g>
<defs>
<clipPath id="clip0_329_9">
<rect width="20" height="20" fill="white" transform="translate(3 3)"/>
</clipPath>
</defs>
</svg>
